<?xml version="1.0" encoding="utf-8"?>
<svg version="1.1" id="Layer_1"
xmlns="http://www.w3.org/2000/svg"
xmlns:xlink="http://www.w3.org/1999/xlink"
width="550px" height="400px"
xml:space="preserve">
<g id="PathID_1" transform="matrix(0.456621, 0, 0, 0.456621, 130.8, 219.7)" opacity="1">
<path style="fill:#4A7DBC;fill-opacity:1" d="M112.15 40.15Q116.9 44.9 116.9 51.95Q116.9 59.05 112.15 63.8Q106.85 69.1 100.35 69.1Q93.3 69.1 88.55 63.8Q83.25 59.05 83.25 51.95Q83.25 44.9 88.55 40.15Q93.3 35.45 100.35 35.45Q106.85 35.45 112.15 40.15M118.1 85.65L118.1 89.15Q118.1 103.35 105.7 113.4L105.7 113.95Q93.3 124 74.95 124Q57.85 124 44.25 113.4Q31.85 103.35 31.85 89.15L31.85 85.65L33.65 82.1L37.2 81.5L38.35 81.5L41.3 82.1L43.7 85.65Q44.25 93.9 52.55 100.4Q62 108.05 74.95 108.05Q88.55 108.05 96.8 100.4Q105.7 93.9 106.25 85.65L108.65 82.1L111 81.5L112.75 81.5L116.3 82.1L118.1 85.65M118.65 30.7Q100.95 12.4 74.95 12.4Q49 12.4 30.7 30.7Q12.4 49 12.4 74.4Q12.4 100.4 30.7 118.7Q49 137.6 74.95 137.6Q100.95 137.6 118.65 118.7Q137 100.4 137 74.4Q137 49 118.65 30.7M149.4 75Q149.4 105.7 127.55 127.55Q105.7 150 74.95 150Q43.7 150 21.25 127.55Q0 105.7 0 75Q0 44.3 21.25 21.85Q43.7 0 74.95 0Q105.7 0 127.55 21.85Q149.4 44.3 149.4 75M52.55 35.45Q59.05 35.45 64.35 40.15Q69.05 44.9 69.05 51.95Q69.05 59.05 64.35 63.8Q59.05 69.1 52.55 69.1Q45.45 69.1 40.7 63.8Q35.4 59.05 35.4 51.95Q35.4 44.9 40.7 40.15Q45.45 35.45 52.55 35.45" />
</g>
<g id="PathID_2" transform="matrix(2.88454, 0, 0, 2.88454, -76.95, 165.9)" opacity="1">
<path style="fill:#4A7DBC;fill-opacity:1" d="M146.95 17L146.95 55.45Q146.95 61.6 142.95 66.3Q139.15 70.95 133.15 72.1Q133.05 67.05 129.4 63.5Q125.8 59.95 120.8 59.95Q115.6 59.95 112 63.65Q108.35 67.2 108.35 72.4L66.45 72.4Q66.45 67.2 62.8 63.65Q59.2 59.95 54 59.95Q48.9 59.95 45.3 63.55Q41.75 67.15 41.65 72.2Q37.25 71.65 33.9 69.1L1.95 69.1Q1.15 69.1 0.55 68.5Q0 67.8 0 66.9Q0 65.95 0.55 65.35Q1.15 64.65 1.95 64.65L29.6 64.65Q26.9 60.55 26.9 55.45L26.9 17Q26.9 9.9 31.9 5Q36.85 0 43.85 0L130 0Q137 0 141.95 5Q146.95 9.9 146.95 17M124.35 9.65Q121.65 12.45 121.65 16.3L121.65 29.85Q121.65 33.75 124.35 36.45Q127.15 39.15 131 39.15Q134.85 39.15 137.55 36.45Q140.3 33.7 140.3 29.85L140.3 16.3Q140.3 12.45 137.55 9.65Q134.85 6.95 131 6.95Q127.15 6.95 124.35 9.65M108.35 11.7Q103.65 6.95 96.95 6.95L76.9 6.95Q70.2 6.95 65.5 11.7Q60.75 16.35 60.75 23.05Q60.75 29.7 65.5 34.45Q70.2 39.15 76.9 39.15L96.95 39.15Q103.65 39.15 108.35 34.45Q113.1 29.7 113.1 23.05Q113.1 16.35 108.35 11.7M118.15 69.75Q117 70.8 117 72.4Q117 73.9 118.15 75.05Q119.2 76.1 120.8 76.1Q122.3 76.1 123.45 75.05Q124.5 73.9 124.5 72.4Q124.5 70.8 123.45 69.75Q122.3 68.6 120.8 68.6Q119.2 68.6 118.15 69.75M114.6 66.2Q117.1 63.65 120.8 63.65Q124.35 63.65 126.95 66.2Q129.5 68.75 129.5 72.4Q129.5 76 126.95 78.55Q124.35 81.1 120.8 81.1Q117.1 81.1 114.6 78.55Q112 76 112 72.4Q112 68.75 114.6 66.2M43.6 6.95Q39.75 6.95 37 9.65Q34.3 12.45 34.3 16.3L34.3 29.85Q34.3 33.75 37 36.45Q39.75 39.15 43.6 39.15Q47.45 39.15 50.15 36.45Q52.95 33.7 52.95 29.85L52.95 16.3Q52.95 12.45 50.15 9.65Q47.45 6.95 43.6 6.95M47.9 66.2Q50.45 63.65 54 63.65Q57.7 63.65 60.2 66.2Q62.8 68.75 62.8 72.4Q62.8 76 60.2 78.55Q57.7 81.1 54 81.1Q50.45 81.1 47.9 78.55Q45.3 76 45.3 72.4Q45.3 68.75 47.9 66.2M54 68.6Q52.5 68.6 51.45 69.75Q50.3 70.8 50.3 72.4Q50.3 73.9 51.45 75.05Q52.5 76.1 54 76.1Q55.6 76.1 56.65 75.05Q57.8 73.9 57.8 72.4Q57.8 70.8 56.65 69.75Q55.6 68.6 54 68.6" />
</g>
<g id="PathID_3" transform="matrix(2.301, -0.0604098, 0.0474622, 1.80783, -2.4, 2.35)" opacity="1">
<path style="fill:#4A7DBC;fill-opacity:1" d="M150 22.35L148.95 72.05Q148.95 80.05 143.1 85.35Q137.25 90.95 129.25 90.4L35.65 88.3Q36.15 100 40.95 109.8Q47.85 123.65 62.75 131.65Q39.1 123.9 29.8 116.75Q15.95 106.1 12.25 86.4Q6.65 84.3 3.45 79.25Q0 74.2 0 68.05L1.3 18.6Q1.6 10.9 7.45 5.3Q13 0 21 0L131.65 2.65Q139.6 2.9 145.2 8.75Q150.55 14.35 150 22.35" />
</g>
<g id="PathID_4" transform="matrix(1.66016, 0, 0, 1.66016, 1.05, 105.95)" opacity="1">
<path style="fill:#FFFFFF;fill-opacity:1" d="M17.6 -14.6L17.6 -14.2Q22.2 -15.8 23.6 -15.8Q26 -15.6 26.4 -10.6Q26.4 -9.6 26 -7.8L26 -7.4Q24.6 -0.6 21.2 -2.6Q17.8 -0.2 14.8 -2.6Q13.4 -3.8 13 -7.4Q12.8 -8.4 12.8 -9L12.4 -9L11.6 -8.2Q8.2 -4.6 5.6 -3.4L5.2 -3.8L10.4 -9.4Q13.4 -13.2 16.8 -16.6L16.8 -17Q15.4 -16.6 13 -15.4Q9.8 -14 8 -13.8Q6.6 -15.6 7.6 -16.6Q8.6 -17.4 11.2 -19L13.4 -20.4Q14.8 -21.2 15.6 -21.8Q18.2 -23.4 18.4 -25L18 -25.4Q17.4 -25.2 16.2 -25Q14.4 -24.6 13.6 -24.6Q11.8 -24.6 11.6 -25.8Q11.8 -27.2 15.2 -28.6L16 -29L16.2 -29Q18 -29.8 18 -30.2L18 -30.8Q18.2 -34.6 20 -35Q22.4 -34.4 21.2 -31Q21.4 -30.6 22.4 -30.2Q24 -29.8 24 -29Q23.8 -27.8 23.2 -27.4L22.4 -27Q21.8 -27 21.6 -26.2Q21.2 -25.4 21 -24.6L20.4 -22.2Q21.4 -22.2 22.4 -24.6Q23.4 -27 24.8 -27Q25.4 -27 26 -26.6Q26 -25.6 24.8 -24Q24 -22.8 24 -22.2L24.2 -22.2Q26.6 -22.2 26.8 -21.4Q26.8 -19.8 23 -18.4Q22.6 -18.2 22.4 -18.2Q20.6 -18 18.4 -15.4L17.6 -14.6M12 -18.6L12 -18.2Q17.2 -19.8 18 -20.6Q16 -20.8 12 -18.6M17.2 -5L17.6 -5.8Q17.4 -5.8 17 -6.2Q16.2 -7.2 16.4 -7.8Q16.2 -9 18.8 -10.2Q21.6 -9.4 20.4 -6.2Q20.2 -5.8 19.6 -5.2Q19 -4.6 18.8 -4.2Q21.4 -5.6 22.8 -4.6Q25.4 -8.8 24 -11.4Q22.6 -13.6 17.6 -11.4Q17.2 -11.2 17.4 -11.2Q15.2 -10.6 15.2 -9.4Q15.2 -8.4 15.6 -7.4Q15.6 -7 15.8 -6.6Q16.4 -4.8 17.2 -5M33.2 -23.4L33.2 -15.8L33.2 -13.2Q33.6 -11.4 33.6 -10.6L33.6 -7Q33.6 -5.8 33.2 -4Q32.6 -2 32.8 -1Q33.8 1 31.8 6.2Q31.6 6.6 31.6 7L31.2 7Q30.8 5 30.8 3L30.8 0.2L30.6 -2.6Q30 -6.6 30.8 -9Q30.8 -11.2 30.6 -13.8L30 -20.6L30.4 -24.6Q28.4 -25 30 -28.2Q30.2 -28.6 31.6 -28.8Q32.2 -28.8 32.4 -29Q34 -29.4 35.6 -30Q37.2 -30.6 38 -31Q39.2 -31.6 40.4 -31.8Q43.2 -31.2 43.6 -29Q43.6 -27.8 42.4 -25.6L42 -24.6Q41.8 -24 41.4 -23.2Q40.2 -21 40.4 -19.8Q40.4 -19 41.4 -17.6L42.4 -16.2Q43.6 -14.2 43.6 -11.8Q43.6 -9.8 42.4 -8.2Q42 -7.8 41.8 -7.4Q39.6 -2.8 36.8 -3Q36.6 -3.4 36.6 -4.2Q36.6 -5 36.4 -5.4Q36.2 -5.6 36 -6Q35.6 -6.2 35.6 -6.6Q37 -6.8 37.2 -7.8Q37.6 -7.8 38.4 -7.6Q38.8 -7.4 39.2 -7.4Q41.6 -10.6 39.2 -15Q38.8 -15.4 38 -16Q37.4 -16.2 37.2 -16.6Q36.6 -17.6 36.8 -18.6Q36.8 -19.6 37.2 -20.6L37.8 -21.6Q38.2 -21.8 38.4 -22.2Q39.8 -24.6 40.4 -27Q40.6 -27.6 40 -28.2Q38.6 -27.6 36.2 -26L34.8 -25.4Q33 -24.6 33.2 -23.4" />
</g>
<g id="PathID_5" transform="matrix(1.66016, 0, 0, 1.66016, 86.05, 105.95)" opacity="1">
<path style="fill:#FFFFFF;fill-opacity:1" d="M23.6 -32.2Q23.6 -33 24.4 -33.4L24 -34.4Q23.6 -35.6 23.6 -36.2Q23.6 -37.2 25 -38.2Q25.4 -38.4 25.6 -38.6Q26.6 -39.8 27.6 -39.8Q30.4 -39.4 30.8 -36.2Q30.6 -34.6 28.8 -33.8Q28.4 -33.6 27.6 -33.4Q26.8 -33.2 26.4 -33Q26 -32.8 25.8 -32.4Q25.2 -31.6 24.4 -31.8Q23.6 -31.8 23.6 -32.2M23.6 -17.4L24 -17.8L24 -18Q24.4 -22 27.2 -22.2Q28 -22 28.4 -20.4Q28.6 -19.2 29.2 -19Q33.4 -20.2 36 -20.2Q37.6 -19.8 38 -18.6Q38.2 -17.6 38.2 -16.4Q38.4 -15.6 38.4 -13.8Q38.4 -12.8 37.6 -11.4L37.6 -11Q36.2 -7.8 35.2 -6.6Q33.4 -4.6 31.6 -4.6Q31 -4.6 30.8 -5Q31.4 -5.4 30.8 -7.4Q31 -8.2 32.8 -9Q33.4 -8.6 34 -8.6Q35.4 -10.6 35.6 -14.2Q35.4 -16.6 33.6 -16.2L29.2 -15.4L28.8 -15Q28.4 -12 28.4 -9L28.4 -6.6Q28.4 -1.2 27.6 1L26 5.4Q25.8 5.8 25.2 5.8Q24.8 4.4 24.8 3L24.8 1.4Q24.8 0.2 24.6 -1.6Q24.4 -4 24.4 -5.4L24.4 -7L24 -13.4L23.6 -13.8Q23 -13.2 21.4 -12.6Q18.2 -11.6 18.4 -10.2L18.4 -7.8L18 -3.8L17.6 -3.4Q14.4 -6.8 14.4 -11.4Q14.2 -14.2 17.2 -18.2L18 -19Q20 -21.2 20.4 -22.6Q15.4 -21.2 12.2 -20.2Q11 -19.8 10.4 -19.8Q8.6 -19.6 8.4 -21.4Q8.6 -22.8 10 -23.8L13.2 -24.6Q14.6 -24.8 15.2 -25L22.8 -27L23.6 -27.2Q27.8 -28.2 32.8 -29L33.6 -29Q35.6 -29.4 36.8 -29L39.2 -29.8Q41.6 -29.8 41.6 -27.4Q41.6 -26 37.8 -25.4L37.2 -25.4L29.2 -24.2Q28.6 -24 27.8 -24Q23.6 -24 22.4 -22.6Q17.8 -18 17.6 -14.2Q18.8 -15.2 21.8 -16.4L23.6 -17.4" />
</g>
<g id="PathID_6" transform="matrix(1.66016, 0, 0, 1.66016, 171.05, 105.95)" opacity="1">
<path style="fill:#FFFFFF;fill-opacity:1" d="M27.6 -15.4L27.6 -15L27.6 -14.6Q28 -13.4 28 -12.6Q28 -10.6 25.4 -9Q25 -8.8 24.8 -8.6Q24.6 -8.4 24.2 -8.2Q21 -6 21.2 -3.8Q21.6 -2 24.4 -2.2Q24.8 -2.2 26 -2.6Q30.2 -3.8 32 -5Q32.8 -5.4 32.6 -6.2L32.8 -7Q33 -8.4 34.4 -9Q36 -9.4 37.6 -9.4Q40.6 -7.4 39.2 -4.2Q36.4 -1.8 33.2 -3Q28.8 0.8 22.8 1Q17.8 0.6 17.6 -3.8Q17.6 -7.4 23.2 -12.6L24.2 -13.4Q30.4 -18.8 32.8 -22.2Q34.6 -24.6 34.8 -26.6Q34.8 -27 34.2 -28Q34 -28.6 34 -29Q33.8 -30.2 35.6 -31Q35.8 -31.2 35.8 -31Q38.4 -33 39.6 -31.8Q43.4 -27 40 -25.4Q38 -25 37.6 -24.6Q36.2 -23.8 34.2 -21.6Q33 -20.2 32.4 -19.8L27.6 -15.4M9.2 -12.6L10.2 -13.6Q14.2 -17 14.8 -19.8Q14.8 -20.2 15 -21.2Q16.2 -27 19.6 -27Q22.2 -26.4 22.4 -23Q21 -22.4 19.6 -20.4L18.8 -19.4Q17.2 -18.6 15.6 -16Q15.4 -15.2 15.2 -15Q14.8 -14.6 14.6 -14Q12.6 -9.6 10.8 -9.8Q8.2 -10.6 9.2 -12.6" />
</g>
<g id="PathID_7" transform="matrix(1.66016, 0, 0, 1.66016, 256.05, 105.95)" opacity="1">
<path style="fill:#FFFFFF;fill-opacity:1" d="M24.4 -33Q23.6 -33.8 23.4 -34.4Q23 -35 23.2 -35.8Q23.4 -37 25.2 -37.8Q27.8 -38.8 28.8 -37.8Q30 -36 30 -32.2Q29.4 -32 28 -31.8Q25.2 -31.6 24.4 -30.2Q23.8 -30.2 23.6 -30.6Q24.2 -31.8 24.4 -33M21.6 -28.6L21.2 -27.8L22.8 -27.8Q25 -27.6 29.4 -28.8Q33.8 -29.8 36 -29.8Q36.8 -29.8 37.6 -29.4Q39.6 -27.8 39.6 -26.2Q37.8 -24.6 33.4 -25.2Q31.8 -25.2 31.2 -25.4Q29.2 -24.6 25.6 -24.2Q21.8 -23.6 20 -23Q19.6 -22.8 19.4 -22.8Q16 -21.2 14.4 -22.2Q12.6 -21.6 11.6 -22.2Q12 -22.8 12.2 -24Q12.2 -24.2 12.4 -24.6Q12.6 -25.6 14.6 -26Q14.8 -26 15.2 -26.2Q18.4 -27 21.6 -28.6M26 -11.8L26.8 -14.2Q27 -14.6 27.6 -14.6Q28.2 -14.6 28.4 -15Q30.4 -17.8 32.8 -20.2L33.2 -21Q33 -21.2 33 -21.8Q32.8 -22.2 32.8 -22.6Q33.8 -23.8 36.4 -23L36.8 -23Q37.2 -22.4 37.2 -21.2Q37.2 -20.2 37.6 -19.8Q36.2 -16.6 32.8 -18.6Q29.4 -17.2 29.2 -14.6Q29.4 -14.2 30 -13.8Q32 -12.4 32 -11.4Q31.4 -10.2 32 -9Q31 -8.6 30.4 -7Q29.8 -5.8 29.2 -5.4L29.6 -5Q34.6 -3.4 39.6 -3Q39.8 -2.8 40 -2.8Q45.6 -2.4 46 -0.2Q45.8 0.2 44.4 0.4Q44.2 0.4 44 0.6Q43.8 2 42.4 2.2Q36.6 1.8 25.6 -1.2L23.6 -1.8L23.2 -1.8Q18.2 0.4 9.6 1.8L9.6 1.4Q7.8 1.4 6 1.8L6.4 1L5.2 1Q8.4 -0.4 15.6 -2.2Q17.8 -2.6 20 -3.4L20 -3.8Q18.8 -4.8 16.6 -6.4Q15.6 -7 14.8 -7.8Q14.4 -8.4 14.4 -9Q14.8 -10.2 16.8 -10.6Q17.2 -10.6 17.8 -10.4Q18.6 -10 19.2 -10.6Q24.2 -7.2 25.2 -7Q26.4 -9 26.4 -9.4Q26.4 -9.6 26 -10.4Q25.8 -11.2 26 -11.8M14.4 -18.2L14.4 -17.8Q15.2 -18 16 -18.6L15.6 -17Q16.8 -16.2 19.6 -17.2Q21.2 -17.8 22 -17.8Q20 -16.8 17.6 -14L16 -12.2Q12.6 -10.2 11.6 -14.2Q11.6 -16.2 14.4 -18.2" />
</g>
</svg>
